<svg version="1.0" xmlns="http://www.w3.org/2000/svg" width="682.667" height="682.667" viewBox="0 0 512 512"><path d="M236.5.6c-38.2 3.9-66.7 12.1-97.5 28.1-23.7 12.2-43.9 27.1-63.5 46.8C28.6 122.3 2.8 181.3.3 247c-1 28.8 3.2 57.7 12.8 86.5 7.4 22.2 10.3 26.3 19 27.2 8.3.8 15.9-5.8 15.9-13.9 0-2.2-2.4-11.2-5.4-20.1-13.6-40.4-16-75-8-115.2C54 113.7 136.8 39.8 237 30.9c46.6-4.1 93.7 7.3 137.7 33.4l10.3 6-5.1 1.7c-6.4 2.2-9.4 5.1-10.9 10.6-1.1 3.8-1 5.1.4 8.9 1 2.5 3.1 5.4 4.7 6.6 4.6 3.3 67.5 23.9 72.9 23.9 7.7 0 13.1-4.6 14.4-12.3 1-5.5-21.1-72.1-25.2-75.9-3.9-3.6-6.5-4.8-10.9-4.8-10.2 0-17.2 11.3-13.3 21.5 1.2 3.3 1.7 3.5-11-5.1-33.2-22.5-70.1-36.9-110-42.9C281 1 245-.3 236.5.6zM472 152.8c-4.7 2.3-8 7.5-8 12.4 0 2.2 2.5 11.2 5.4 20.1 9.5 28.1 13.3 52.8 12.2 79.2-1.3 32.7-8.3 60.7-22.6 90.1-22.2 45.8-58.5 82-104.5 104.5-21.6 10.5-40.8 16.5-66 20.5-13.5 2.2-48.8 2.5-61 .6-34.3-5.6-61-15.2-90.2-32.5l-10.3-6 5-1.7c6.3-2.1 8.5-4.1 10.5-9.5 2.1-5.4.7-11.6-3.6-15.6-3.8-3.5-67-24.9-73.7-24.9-7.7 0-13.5 4.7-14.7 12-.6 3.3 1.1 9.1 10.9 38.7 6.4 19.1 12.2 35.5 12.9 36.4 2.2 2.9 8.1 5.9 11.7 5.9 10.7 0 18-11.1 14-21.5-1.2-3.3-1.7-3.5 11 5.1 33.7 22.6 70.5 37 110.5 43 16.8 2.6 53.2 2.6 70 0 55.5-8.4 104.9-33.1 144.1-72.1 21.8-21.7 37.1-42.9 49.9-69 9.2-18.7 13.6-30.7 18.5-49.9 12.5-49.4 10.2-97.4-7.1-145.9-2.2-6.5-5.1-13.2-6.3-15-2.5-3.7-7.8-6.7-12.1-6.7-1.6 0-4.6.8-6.5 1.8z" fill="green"/></svg>